<svg xmlns="http://www.w3.org/2000/svg" viewBox="0 0 100 180" width="100" height="180">
  <defs>
    <linearGradient id="fred" x1="0%" y1="0%" x2="100%" y2="0%">
      <stop offset="0%" stop-color="#FF4444"/>
      <stop offset="50%" stop-color="#C41E3A"/>
      <stop offset="100%" stop-color="#8B0000"/>
    </linearGradient>
    <linearGradient id="fgold" x1="0%" y1="0%" x2="100%" y2="0%">
      <stop offset="0%" stop-color="#FFE066"/>
      <stop offset="100%" stop-color="#D4AF37"/>
    </linearGradient>
  </defs>
  <path d="M50 10 Q55 5 60 10 Q55 15 50 10" stroke="#8B4513" stroke-width="2" fill="none"/>
  <path d="M60 10 Q70 5 75 15" stroke="#8B4513" stroke-width="1.5" fill="none"/>
  <circle cx="75" cy="15" r="4" fill="#FF6B00">
    <animate attributeName="opacity" values="1;0.3;1" dur="0.3s" repeatCount="indefinite"/>
  </circle>
  <circle cx="78" cy="12" r="2" fill="#FFD700">
    <animate attributeName="opacity" values="0.8;0.2;0.8" dur="0.2s" repeatCount="indefinite"/>
  </circle>
  <rect x="25" y="20" width="50" height="140" rx="5" fill="url(#fred)"/>
  <rect x="25" y="35" width="50" height="8" fill="url(#fgold)"/>
  <rect x="25" y="65" width="50" height="8" fill="url(#fgold)"/>
  <rect x="25" y="95" width="50" height="8" fill="url(#fgold)"/>
  <rect x="25" y="125" width="50" height="8" fill="url(#fgold)"/>
  <text x="50" y="85" text-anchor="middle" fill="#FFE066" font-size="16" font-weight="bold">福</text>
  <rect x="30" y="160" width="40" height="12" rx="3" fill="url(#fgold)"/>
</svg>
