<svg xmlns="http://www.w3.org/2000/svg" viewBox="0 0 120 120" width="120" height="120">
  <defs>
    <radialGradient id="petalGrad" cx="50%" cy="50%" r="50%">
      <stop offset="0%" stop-color="#FF6B9D"/>
      <stop offset="70%" stop-color="#C41E3A"/>
      <stop offset="100%" stop-color="#8B0000"/>
    </radialGradient>
    <linearGradient id="branchGrad" x1="0%" y1="0%" x2="0%" y2="100%">
      <stop offset="0%" stop-color="#8B4513"/>
      <stop offset="100%" stop-color="#5D3A1A"/>
    </linearGradient>
  </defs>
  <path d="M60 120 Q55 100 60 80 Q65 100 60 120" fill="url(#branchGrad)"/>
  <path d="M58 95 Q40 90 35 75" stroke="url(#branchGrad)" stroke-width="3" fill="none"/>
  <path d="M62 85 Q80 80 85 65" stroke="url(#branchGrad)" stroke-width="3" fill="none"/>
  <ellipse cx="32" cy="72" rx="8" ry="5" fill="#228B22" transform="rotate(-20 32 72)"/>
  <ellipse cx="88" cy="62" rx="8" ry="5" fill="#228B22" transform="rotate(20 88 62)"/>
  <g transform="translate(40, 40)">
    <ellipse cx="0" cy="-20" rx="12" ry="18" fill="url(#petalGrad)"/>
    <ellipse cx="17" cy="-10" rx="12" ry="18" fill="url(#petalGrad)" transform="rotate(72)"/>
    <ellipse cx="17" cy="15" rx="12" ry="18" fill="url(#petalGrad)" transform="rotate(144)"/>
    <ellipse cx="-17" cy="15" rx="12" ry="18" fill="url(#petalGrad)" transform="rotate(216)"/>
    <ellipse cx="-17" cy="-10" rx="12" ry="18" fill="url(#petalGrad)" transform="rotate(288)"/>
    <circle cx="0" cy="0" r="8" fill="#FFE066"/>
    <circle cx="-3" cy="-2" r="2" fill="#D4AF37"/>
    <circle cx="3" cy="1" r="1.5" fill="#D4AF37"/>
  </g>
  <g transform="translate(85, 30)">
    <ellipse cx="0" cy="-12" rx="7" ry="11" fill="url(#petalGrad)" opacity="0.8"/>
    <ellipse cx="10" cy="-6" rx="7" ry="11" fill="url(#petalGrad)" opacity="0.8" transform="rotate(72)"/>
    <ellipse cx="10" cy="9" rx="7" ry="11" fill="url(#petalGrad)" opacity="0.8" transform="rotate(144)"/>
    <ellipse cx="-10" cy="9" rx="7" ry="11" fill="url(#petalGrad)" opacity="0.8" transform="rotate(216)"/>
    <ellipse cx="-10" cy="-6" rx="7" ry="11" fill="url(#petalGrad)" opacity="0.8" transform="rotate(288)"/>
    <circle cx="0" cy="0" r="5" fill="#FFE066"/>
  </g>
</svg>
