<svg xmlns="http://www.w3.org/2000/svg" viewBox="0 0 100 160" width="100" height="160">
  <defs>
    <linearGradient id="knotGrad" x1="0%" y1="0%" x2="100%" y2="100%">
      <stop offset="0%" stop-color="#FF4444"/>
      <stop offset="50%" stop-color="#C41E3A"/>
      <stop offset="100%" stop-color="#8B0000"/>
    </linearGradient>
  </defs>
  <ellipse cx="50" cy="12" rx="12" ry="5" fill="#D4AF37"/>
  <line x1="35" y1="17" x2="35" y2="30" stroke="url(#knotGrad)" stroke-width="4"/>
  <line x1="50" y1="17" x2="50" y2="30" stroke="url(#knotGrad)" stroke-width="4"/>
  <line x1="65" y1="17" x2="65" y2="30" stroke="url(#knotGrad)" stroke-width="4"/>
  <path d="M20 40 L20 55 Q20 75 35 75 L35 90 Q35 105 50 105 Q65 105 65 90 L65 75 Q80 75 80 55 L80 40" 
        stroke="url(#knotGrad)" stroke-width="6" fill="none"/>
  <rect x="35" y="40" width="30" height="35" rx="3" fill="url(#knotGrad)"/>
  <path d="M20 50 Q35 50 35 60" stroke="#D4AF37" stroke-width="2" fill="none"/>
  <path d="M80 50 Q65 50 65 60" stroke="#D4AF37" stroke-width="2" fill="none"/>
  <path d="M40 75 L60 75" stroke="#D4AF37" stroke-width="2"/>
  <ellipse cx="50" cy="115" rx="12" ry="5" fill="#D4AF37"/>
  <line x1="40" y1="120" x2="35" y2="150" stroke="url(#knotGrad)" stroke-width="3"/>
  <line x1="50" y1="120" x2="50" y2="155" stroke="url(#knotGrad)" stroke-width="3"/>
  <line x1="60" y1="120" x2="65" y2="150" stroke="url(#knotGrad)" stroke-width="3"/>
  <path d="M33 148 Q30 152 35 155 Q40 152 37 148" stroke="url(#knotGrad)" stroke-width="3" fill="none"/>
  <path d="M48 153 Q45 157 50 160 Q55 157 52 153" stroke="url(#knotGrad)" stroke-width="3" fill="none"/>
  <path d="M63 148 Q60 152 65 155 Q70 152 67 148" stroke="url(#knotGrad)" stroke-width="3" fill="none"/>
  <ellipse cx="50" cy="57" rx="8" ry="8" fill="#D4AF37" opacity="0.3"/>
</svg>
