<svg xmlns="http://www.w3.org/2000/svg" viewBox="0 0 200 150" width="200" height="150">
  <defs>
    <linearGradient id="lgold" x1="0%" y1="0%" x2="100%" y2="100%">
      <stop offset="0%" stop-color="#FFE066"/>
      <stop offset="100%" stop-color="#D4AF37"/>
    </linearGradient>
  </defs>
  <line x1="0" y1="20" x2="200" y2="20" stroke="url(#lgold)" stroke-width="3"/>
  <g transform="translate(35, 25)">
    <ellipse cx="0" cy="50" rx="25" ry="35" fill="#C41E3A"/>
    <ellipse cx="0" cy="10" rx="10" ry="4" fill="url(#lgold)"/>
    <ellipse cx="0" cy="90" rx="10" ry="4" fill="url(#lgold)"/>
    <line x1="0" y1="94" x2="0" y2="110" stroke="url(#lgold)" stroke-width="2"/>
  </g>
  <g transform="translate(100, 25)">
    <ellipse cx="0" cy="50" rx="30" ry="42" fill="#C41E3A"/>
    <ellipse cx="0" cy="10" rx="12" ry="5" fill="url(#lgold)"/>
    <ellipse cx="0" cy="95" rx="12" ry="5" fill="url(#lgold)"/>
    <line x1="0" y1="100" x2="0" y2="120" stroke="url(#lgold)" stroke-width="2"/>
    <circle cx="0" cy="52" r="6" fill="url(#lgold)"/>
  </g>
  <g transform="translate(165, 25)">
    <ellipse cx="0" cy="50" rx="25" ry="35" fill="#C41E3A"/>
    <ellipse cx="0" cy="10" rx="10" ry="4" fill="url(#lgold)"/>
    <ellipse cx="0" cy="90" rx="10" ry="4" fill="url(#lgold)"/>
    <line x1="0" y1="94" x2="0" y2="110" stroke="url(#lgold)" stroke-width="2"/>
  </g>
  <line x1="35" y1="20" x2="35" y2="30" stroke="url(#lgold)" stroke-width="2"/>
  <line x1="100" y1="20" x2="100" y2="30" stroke="url(#lgold)" stroke-width="2"/>
  <line x1="165" y1="20" x2="165" y2="30" stroke="url(#lgold)" stroke-width="2"/>
</svg>
