<svg xmlns="http://www.w3.org/2000/svg" viewBox="0 0 140 140" width="140" height="140">
  <defs>
    <radialGradient id="z2Bg" cx="50%" cy="30%" r="70%">
      <stop offset="0%" stop-color="#FFE4E1"/>
      <stop offset="100%" stop-color="#FFB6C1"/>
    </radialGradient>
  </defs>
  <circle cx="70" cy="70" r="65" fill="url(#z2Bg)"/>
  <circle cx="70" cy="70" r="58" fill="none" stroke="#C41E3A" stroke-width="2" stroke-dasharray="4,4"/>
  <g transform="translate(35, 40)">
    <ellipse cx="35" cy="55" rx="32" ry="28" fill="#FFFFFF"/>
    <ellipse cx="35" cy="28" rx="25" ry="22" fill="#FFFFFF"/>
    <ellipse cx="15" cy="8" rx="8" ry="12" fill="#FFFFFF"/>
    <ellipse cx="55" cy="8" rx="8" ry="12" fill="#FFFFFF"/>
    <ellipse cx="12" cy="12" rx="4" ry="6" fill="#FFB6C1"/>
    <ellipse cx="58" cy="12" rx="4" ry="6" fill="#FFB6C1"/>
    <circle cx="26" cy="26" r="3.5" fill="#000000"/>
    <circle cx="44" cy="26" r="3.5" fill="#000000"/>
    <circle cx="25" cy="25" r="1" fill="#FFFFFF"/>
    <circle cx="43" cy="25" r="1" fill="#FFFFFF"/>
    <ellipse cx="35" cy="35" rx="5" ry="3.5" fill="#FFB6C1"/>
    <path d="M28 42 Q35 48 42 42" stroke="#000000" stroke-width="2" fill="none"/>
    <path d="M10 30 Q5 25 8 35" stroke="#8B4513" stroke-width="2" fill="none"/>
    <path d="M60 30 Q65 25 62 35" stroke="#8B4513" stroke-width="2" fill="none"/>
    <ellipse cx="12" cy="32" rx="4" ry="6" fill="#FFB6C1" opacity="0.7"/>
    <ellipse cx="58" cy="32" rx="4" ry="6" fill="#FFB6C1" opacity="0.7"/>
  </g>
  <text x="70" y="128" text-anchor="middle" fill="#C41E3A" font-size="14" font-weight="bold">万事如意</text>
</svg>
