<svg xmlns="http://www.w3.org/2000/svg" viewBox="0 0 140 140" width="140" height="140">
  <defs>
    <linearGradient id="z1Bg" x1="0%" y1="0%" x2="100%" y2="100%">
      <stop offset="0%" stop-color="#FFD700"/>
      <stop offset="100%" stop-color="#FF8C00"/>
    </linearGradient>
  </defs>
  <circle cx="70" cy="70" r="65" fill="url(#z1Bg)"/>
  <circle cx="70" cy="70" r="58" fill="none" stroke="#C41E3A" stroke-width="2"/>
  <g transform="translate(30, 35)">
    <ellipse cx="40" cy="65" rx="38" ry="30" fill="#FF6B6B"/>
    <ellipse cx="40" cy="30" rx="30" ry="25" fill="#FF6B6B"/>
    <ellipse cx="18" cy="10" rx="10" ry="15" fill="#FF6B6B"/>
    <ellipse cx="62" cy="10" rx="10" ry="15" fill="#FF6B6B"/>
    <circle cx="30" cy="28" r="4" fill="#FFFFFF"/>
    <circle cx="30" cy="28" r="2" fill="#000000"/>
    <circle cx="50" cy="28" r="4" fill="#FFFFFF"/>
    <circle cx="50" cy="28" r="2" fill="#000000"/>
    <ellipse cx="40" cy="38" rx="6" ry="4" fill="#FFB6C1"/>
    <path d="M32 45 Q40 52 48 45" stroke="#000000" stroke-width="2" fill="none"/>
    <ellipse cx="15" cy="35" rx="5" ry="8" fill="#FFB6C1" opacity="0.6"/>
    <ellipse cx="65" cy="35" rx="5" ry="8" fill="#FFB6C1" opacity="0.6"/>
  </g>
  <text x="70" y="130" text-anchor="middle" fill="#C41E3A" font-size="14" font-weight="bold">新年快乐</text>
</svg>
